# xmcd CD database file
#
# Track frame offsets:
#	150
#	19545
#	33597
#	48205
#	72370
#	93997
#	110447
#	132735
#	148337
#	169270
#
# Disc length: 2910 seconds
#
# Revision: 3
# Processed by: cddbd v1.5.1PL0 Copyright (c) Steve Scherf et al.
# Submitted via: CDex 1.51
#
DISCID=8f0b5c0a
DTITLE=Little Anthony and the Locomotives - Can't Take It
DYEAR=1993
DGENRE=Blues
TTITLE0=Can't Take It
TTITLE1=Did Not Like What I Saw Last Night
TTITLE2=Positions Wanted
TTITLE3=Back in Love
TTITLE4=Can't Get You Off My Mind
TTITLE5=Loving You
TTITLE6=Half Not Whole
TTITLE7=Lucille
TTITLE8=Talking about You
TTITLE9=Eight Rooms of Gloom
EXTD=YEAR: 1993
EXTT0=
EXTT1=
EXTT2=
EXTT3=
EXTT4=
EXTT5=
EXTT6=
EXTT7=
EXTT8=
EXTT9=
PLAYORDER=
